# xmcd CD database file
#
# Track frame offsets:
#	150
#	23332
#	48875
#
# Disc length: 959 seconds
#
# Revision: 2
# Processed by: cddbd v1.5PL3 Copyright (c) Steve Scherf et al.
# Submitted via: CDex 1.51
#
DISCID=1303bd03
DTITLE=THE ALFEE - Justice For True Love
DYEAR=1999
DGENRE=JPop
TTITLE0=Justice For True Love
TTITLE1=A.D.1999 〜Millennium Version〜
TTITLE2=Justice For True Love (Original Instrumental)
EXTD=YEAR: 1999
EXTT0=
EXTT1=
EXTT2=
PLAYORDER=
